<svg version="1.1" id="Layer_1" xmlns="http://www.w3.org/2000/svg" xmlns:xlink="http://www.w3.org/1999/xlink" x="0px" y="0px"
	 width="100%" viewBox="0 0 1080 1080" enable-background="new 0 0 1080 1080" xml:space="preserve">
<path fill="#FEFFFF" opacity="1.000000" stroke="none" 
	d="
M1.000000,280.000000 
	C1.000000,186.677383 1.000000,93.854759 1.000000,1.016069 
	C360.947754,1.016069 720.895508,1.016069 1080.921631,1.016069 
	C1080.921631,360.906189 1080.921631,720.812439 1080.921631,1080.859375 
	C721.000061,1080.859375 361.000031,1080.859375 1.000000,1080.859375 
	C1.000000,814.104065 1.000000,547.302063 1.000000,280.000000 
M1040.535645,550.500061 
	C1040.535767,428.667725 1040.617554,306.835205 1040.406616,185.003235 
	C1040.385986,173.076691 1039.820557,160.888702 1037.374390,149.271301 
	C1021.406921,73.436852 957.477600,22.010328 879.902771,22.003935 
	C648.070007,21.984833 416.237274,22.029646 184.404556,21.967016 
	C142.947144,21.955816 106.533768,35.444286 75.998779,63.265396 
	C42.352760,93.921028 24.175138,132.424957 24.120554,178.133575 
	C23.840517,412.632629 24.004993,647.132202 23.960194,881.631592 
	C23.956190,902.579651 28.139463,922.621033 36.289219,941.832764 
	C61.343666,1000.894531 118.650414,1038.754150 182.796204,1038.754150 
	C416.295624,1038.754272 649.795105,1038.821289 883.294373,1038.691162 
	C924.198486,1038.668335 959.861633,1024.254639 989.701111,996.393921 
	C1024.167847,964.213013 1040.666748,924.185181 1040.590820,876.999207 
	C1040.416382,768.499756 1040.535278,659.999817 1040.535645,550.500061 
z"/>
<path fill="#02D493" opacity="1.000000" stroke="none" 
	d="
M1040.535400,551.000122 
	C1040.535278,659.999817 1040.416382,768.499756 1040.590820,876.999207 
	C1040.666748,924.185181 1024.167847,964.213013 989.701111,996.393921 
	C959.861633,1024.254639 924.198486,1038.668335 883.294373,1038.691162 
	C649.795105,1038.821289 416.295624,1038.754272 182.796204,1038.754150 
	C118.650414,1038.754150 61.343666,1000.894531 36.289219,941.832764 
	C28.139463,922.621033 23.956190,902.579651 23.960194,881.631592 
	C24.004993,647.132202 23.840517,412.632629 24.120554,178.133575 
	C24.175138,132.424957 42.352760,93.921028 75.998779,63.265396 
	C106.533768,35.444286 142.947144,21.955816 184.404556,21.967016 
	C416.237274,22.029646 648.070007,21.984833 879.902771,22.003935 
	C957.477600,22.010328 1021.406921,73.436852 1037.374390,149.271301 
	C1039.820557,160.888702 1040.385986,173.076691 1040.406616,185.003235 
	C1040.617554,306.835205 1040.535767,428.667725 1040.535400,551.000122 
M38.929874,382.500000 
	C38.929886,545.825745 38.917271,709.151550 38.969616,872.477295 
	C38.972069,880.127258 39.166042,887.816345 39.934853,895.420105 
	C42.809959,923.855652 53.359303,949.271118 71.636879,971.192017 
	C101.480713,1006.984802 140.354584,1023.808838 186.557831,1023.829041 
	C416.880585,1023.929626 647.203491,1023.958435 877.525940,1023.663391 
	C891.026184,1023.646118 904.810974,1021.792969 917.963867,1018.682190 
	C950.598572,1010.963562 976.698730,992.703735 996.834595,965.943848 
	C1016.563782,939.724548 1025.439087,910.064392 1025.427246,877.363037 
	C1025.343384,646.040283 1025.393921,414.717560 1025.328857,183.394852 
	C1025.326782,176.258133 1024.943359,169.069077 1024.038574,161.993851 
	C1019.254150,124.583229 1001.768005,93.863930 973.092102,69.869011 
	C946.453796,47.579105 915.094727,37.051128 880.407104,37.041016 
	C648.417725,36.973381 416.428253,36.927696 184.439224,37.214943 
	C171.603989,37.230831 158.456589,39.012375 145.992691,42.126324 
	C84.559082,57.474731 39.686619,114.102104 39.129662,177.511124 
	C38.532455,245.502747 38.953255,313.503326 38.929874,382.500000 
z"/>
<path fill="#ADD5C7" opacity="1.000000" stroke="none" 
	d="
M38.929832,382.000000 
	C38.953255,313.503326 38.532455,245.502747 39.129662,177.511124 
	C39.686619,114.102104 84.559082,57.474731 145.992691,42.126324 
	C158.456589,39.012375 171.603989,37.230831 184.439224,37.214943 
	C416.428253,36.927696 648.417725,36.973381 880.407104,37.041016 
	C915.094727,37.051128 946.453796,47.579105 973.092102,69.869011 
	C1001.768005,93.863930 1019.254150,124.583229 1024.038574,161.993851 
	C1024.943359,169.069077 1025.326782,176.258133 1025.328857,183.394852 
	C1025.393921,414.717560 1025.343384,646.040283 1025.427246,877.363037 
	C1025.439087,910.064392 1016.563782,939.724548 996.834595,965.943848 
	C976.698730,992.703735 950.598572,1010.963562 917.963867,1018.682190 
	C904.810974,1021.792969 891.026184,1023.646118 877.525940,1023.663391 
	C647.203491,1023.958435 416.880585,1023.929626 186.557831,1023.829041 
	C140.354584,1023.808838 101.480713,1006.984802 71.636879,971.192017 
	C53.359303,949.271118 42.809959,923.855652 39.934853,895.420105 
	C39.166042,887.816345 38.972069,880.127258 38.969616,872.477295 
	C38.917271,709.151550 38.929886,545.825745 38.929832,382.000000 
M237.157623,221.356415 
	C225.670074,212.563889 214.388214,203.477829 202.551682,195.183304 
	C199.558319,193.085663 194.584137,192.321930 190.879532,192.977127 
	C168.788818,196.884018 154.268005,214.271988 149.212234,234.608658 
	C148.076065,239.178909 148.940186,243.510254 151.866043,247.363571 
	C156.999374,254.124023 161.575317,261.380737 167.251968,267.643494 
	C198.562027,302.186401 229.464462,337.136475 261.787720,370.713745 
	C301.649811,412.122314 342.770386,452.319427 383.340607,493.046509 
	C384.611023,494.321838 385.809967,495.668396 387.184845,497.133728 
	C386.118713,498.323578 385.290924,499.329529 384.379272,500.252655 
	C368.339722,516.492859 352.178772,532.614807 336.263062,548.975403 
	C287.479095,599.123108 238.502289,649.088989 190.244354,699.739014 
	C176.636185,714.021729 165.206467,730.385010 152.846146,745.848816 
	C148.020416,751.886230 147.872345,758.642700 150.261703,765.693481 
	C153.860046,776.312073 160.764755,784.494995 169.271317,791.473389 
	C171.195877,793.052185 173.288925,794.451294 175.411896,795.758545 
	C189.891190,804.674744 197.863052,804.353760 211.349777,794.024414 
	C245.808578,767.632996 276.847351,737.396973 307.870178,707.206909 
	C362.679230,653.869202 416.108612,599.175293 466.069824,541.216064 
	C475.829926,529.893555 484.388824,517.538940 493.577850,505.719513 
	C497.737305,500.369354 497.461731,495.069244 493.802094,489.702942 
	C489.771271,483.792267 485.957123,477.705627 481.559052,472.078217 
	C450.638214,432.514709 416.140411,396.113464 381.190826,360.185577 
	C351.223541,329.379395 320.542755,299.253754 289.710663,269.307831 
	C272.876984,252.957962 255.073975,237.606094 237.157623,221.356415 
M760.919739,889.307007 
	C792.066711,888.872437 823.220459,888.695984 854.357666,887.886230 
	C868.302917,887.523560 882.304016,886.521545 896.106079,884.577271 
	C903.303467,883.563477 911.275024,881.373657 916.870239,877.076294 
	C927.813965,868.670898 932.935303,856.571899 931.994385,842.360779 
	C930.957031,826.692627 921.307800,814.188721 905.927612,811.251099 
	C890.942566,808.388855 875.705017,806.435242 860.487427,805.296936 
	C835.601379,803.435425 810.654968,801.993835 785.709717,801.408752 
	C754.251770,800.670959 722.762634,800.498901 691.299438,800.951050 
	C657.012390,801.443787 622.714539,802.436279 588.470154,804.171814 
	C568.245117,805.196899 548.104370,807.990051 527.945068,810.167908 
	C515.295898,811.534424 506.287415,818.025879 501.536377,830.026489 
	C500.496643,832.652832 499.197723,835.228577 498.564209,837.954529 
	C495.995361,849.007629 496.291840,859.849060 502.849152,869.588928 
	C507.405853,876.357056 514.845581,879.008545 522.278687,880.921204 
	C547.459229,887.400452 573.349609,887.882446 599.075745,888.595886 
	C635.706238,889.611633 672.370117,889.476135 709.020630,889.686890 
	C726.011230,889.784546 743.003784,889.538574 760.919739,889.307007 
z"/>
<path fill="#00D492" opacity="1.000000" stroke="none" 
	d="
M237.432861,221.580292 
	C255.073975,237.606094 272.876984,252.957962 289.710663,269.307831 
	C320.542755,299.253754 351.223541,329.379395 381.190826,360.185577 
	C416.140411,396.113464 450.638214,432.514709 481.559052,472.078217 
	C485.957123,477.705627 489.771271,483.792267 493.802094,489.702942 
	C497.461731,495.069244 497.737305,500.369354 493.577850,505.719513 
	C484.388824,517.538940 475.829926,529.893555 466.069824,541.216064 
	C416.108612,599.175293 362.679230,653.869202 307.870178,707.206909 
	C276.847351,737.396973 245.808578,767.632996 211.349777,794.024414 
	C197.863052,804.353760 189.891190,804.674744 175.411896,795.758545 
	C173.288925,794.451294 171.195877,793.052185 169.271317,791.473389 
	C160.764755,784.494995 153.860046,776.312073 150.261703,765.693481 
	C147.872345,758.642700 148.020416,751.886230 152.846146,745.848816 
	C165.206467,730.385010 176.636185,714.021729 190.244354,699.739014 
	C238.502289,649.088989 287.479095,599.123108 336.263062,548.975403 
	C352.178772,532.614807 368.339722,516.492859 384.379272,500.252655 
	C385.290924,499.329529 386.118713,498.323578 387.184845,497.133728 
	C385.809967,495.668396 384.611023,494.321838 383.340607,493.046509 
	C342.770386,452.319427 301.649811,412.122314 261.787720,370.713745 
	C229.464462,337.136475 198.562027,302.186401 167.251968,267.643494 
	C161.575317,261.380737 156.999374,254.124023 151.866043,247.363571 
	C148.940186,243.510254 148.076065,239.178909 149.212234,234.608658 
	C154.268005,214.271988 168.788818,196.884018 190.879532,192.977127 
	C194.584137,192.321930 199.558319,193.085663 202.551682,195.183304 
	C214.388214,203.477829 225.670074,212.563889 237.432861,221.580292 
z"/>
<path fill="#01D492" opacity="1.000000" stroke="none" 
	d="
M760.457642,889.377686 
	C743.003784,889.538574 726.011230,889.784546 709.020630,889.686890 
	C672.370117,889.476135 635.706238,889.611633 599.075745,888.595886 
	C573.349609,887.882446 547.459229,887.400452 522.278687,880.921204 
	C514.845581,879.008545 507.405853,876.357056 502.849152,869.588928 
	C496.291840,859.849060 495.995361,849.007629 498.564209,837.954529 
	C499.197723,835.228577 500.496643,832.652832 501.536377,830.026489 
	C506.287415,818.025879 515.295898,811.534424 527.945068,810.167908 
	C548.104370,807.990051 568.245117,805.196899 588.470154,804.171814 
	C622.714539,802.436279 657.012390,801.443787 691.299438,800.951050 
	C722.762634,800.498901 754.251770,800.670959 785.709717,801.408752 
	C810.654968,801.993835 835.601379,803.435425 860.487427,805.296936 
	C875.705017,806.435242 890.942566,808.388855 905.927612,811.251099 
	C921.307800,814.188721 930.957031,826.692627 931.994385,842.360779 
	C932.935303,856.571899 927.813965,868.670898 916.870239,877.076294 
	C911.275024,881.373657 903.303467,883.563477 896.106079,884.577271 
	C882.304016,886.521545 868.302917,887.523560 854.357666,887.886230 
	C823.220459,888.695984 792.066711,888.872437 760.457642,889.377686 
z"/>
</svg>